<?xml version="1.0" standalone="no"?>
<!DOCTYPE svg PUBLIC "-//W3C//DTD SVG 20010904//EN"
 "http://www.w3.org/TR/2001/REC-SVG-20010904/DTD/svg10.dtd">
<svg version="1.0" xmlns="http://www.w3.org/2000/svg"
 width="1024.000000pt" height="1024.000000pt" viewBox="0 0 1024.000000 1024.000000"
 preserveAspectRatio="xMidYMid meet">
<metadata>
Created by potrace 1.14, written by Peter Selinger 2001-2017
</metadata>
<g transform="translate(0.000000,1024.000000) scale(0.100000,-0.100000)"
fill="#000000" stroke="none">
<path d="M4988 8389 c-83 -94 -105 -121 -158 -189 -19 -25 -37 -47 -40 -50
-16 -15 -158 -212 -232 -320 -126 -185 -216 -337 -324 -547 -54 -103 -98 -189
-100 -191 -1 -2 -12 7 -25 20 -169 167 -617 489 -976 702 -175 103 -209 118
-227 101 -37 -38 -138 -443 -160 -645 -4 -30 -8 -73 -11 -95 -24 -213 -24
-699 1 -862 3 -17 1 -33 -3 -36 -4 -3 -53 17 -108 44 -270 132 -684 269 -922
305 -21 3 -49 7 -63 10 -14 3 -83 7 -154 11 l-129 6 7 -132 c26 -534 206
-1133 480 -1601 102 -176 292 -434 404 -552 20 -21 34 -39 31 -42 -2 -2 -94
-6 -204 -10 -293 -9 -431 -26 -643 -77 -207 -50 -412 -129 -412 -159 0 -10 87
-116 143 -174 18 -18 97 -102 177 -187 205 -218 581 -594 671 -671 400 -342
840 -554 1281 -618 92 -14 497 -14 601 -1 257 34 540 163 781 355 93 74 143
120 263 239 l101 100 124 -120 c68 -66 141 -136 163 -154 22 -19 42 -37 45
-40 26 -30 231 -162 330 -213 181 -93 325 -140 505 -166 176 -26 497 -18 665
16 115 23 200 45 280 72 326 108 616 279 938 554 59 51 736 732 860 866 71 77
112 129 110 140 -7 37 -210 116 -413 161 -106 23 -254 48 -345 56 -36 4 -76 8
-90 11 -14 2 -113 7 -220 10 -107 4 -196 7 -197 8 -1 1 18 24 43 51 391 435
662 972 799 1586 49 218 68 352 81 578 l7 114 -129 -6 c-157 -7 -303 -33 -489
-86 -246 -70 -444 -143 -639 -235 l-118 -56 7 108 c13 197 7 663 -11 822 -33
293 -128 697 -171 723 -25 16 -463 -251 -767 -466 -87 -61 -301 -229 -316
-247 -3 -3 -36 -32 -74 -64 l-69 -58 -75 149 c-148 295 -295 532 -513 823 -67
91 -125 167 -129 170 -3 3 -24 27 -45 55 -22 27 -54 66 -72 85 -17 19 -40 46
-50 59 l-19 23 -56 -63z"/>
</g>
</svg>
